<svg width="20" height="20" viewBox="0 0 20 20" fill="none" xmlns="http://www.w3.org/2000/svg">
<g clip-path="url(#clip0_146_1101)">
<path d="M18.1597 15.5861C17.8572 16.2848 17.4992 16.928 17.0844 17.5194C16.519 18.3255 16.056 18.8835 15.6993 19.1934C15.1462 19.702 14.5536 19.9625 13.9191 19.9773C13.4635 19.9773 12.9142 19.8477 12.2747 19.5847C11.6331 19.323 11.0435 19.1934 10.5044 19.1934C9.93896 19.1934 9.33256 19.323 8.68394 19.5847C8.03433 19.8477 7.51101 19.9847 7.1109 19.9983C6.5024 20.0242 5.89588 19.7563 5.29046 19.1934C4.90406 18.8563 4.42074 18.2786 3.84174 17.4601C3.22053 16.586 2.70981 15.5725 2.30969 14.417C1.88119 13.1689 1.66638 11.9603 1.66638 10.7902C1.66638 9.44984 1.956 8.29383 2.53611 7.32509C2.99202 6.54697 3.59854 5.93316 4.35765 5.48255C5.11677 5.03195 5.93699 4.80233 6.82029 4.78764C7.30361 4.78764 7.93742 4.93714 8.72505 5.23096C9.51045 5.52576 10.0148 5.67526 10.2359 5.67526C10.4012 5.67526 10.9614 5.50045 11.9111 5.15195C12.8092 4.82875 13.5672 4.69492 14.1882 4.74764C15.8709 4.88344 17.135 5.54675 17.9757 6.74178C16.4708 7.6536 15.7264 8.93072 15.7412 10.5691C15.7548 11.8452 16.2178 12.9071 17.1276 13.7503C17.5399 14.1417 18.0004 14.4441 18.5128 14.6589C18.4017 14.9812 18.2844 15.2898 18.1597 15.5861ZM14.3005 0.400114C14.3005 1.40034 13.9351 2.33425 13.2068 3.19867C12.3278 4.22629 11.2646 4.8201 10.1117 4.7264C10.097 4.60641 10.0885 4.48011 10.0885 4.3474C10.0885 3.38718 10.5065 2.35956 11.2488 1.51934C11.6194 1.09392 12.0907 0.74019 12.6623 0.458013C13.2327 0.180046 13.7722 0.0263242 14.2796 0C14.2944 0.133715 14.3005 0.267438 14.3005 0.400101V0.400114Z" fill="black"/>
</g>
<defs>
<clipPath id="clip0_146_1101">
<rect width="20" height="20" fill="white"/>
</clipPath>
</defs>
</svg>
