<svg width="20" height="20" viewBox="0 0 20 20" fill="none" xmlns="http://www.w3.org/2000/svg">
<g clip-path="url(#clip0_146_1093)">
<path d="M10 8.18213V12.0549H15.3818C15.1455 13.3003 14.4363 14.3549 13.3727 15.064L16.6181 17.5822C18.509 15.8368 19.5999 13.2731 19.5999 10.2277C19.5999 9.51861 19.5363 8.83672 19.4181 8.18224L10 8.18213Z" fill="#4285F4"/>
<path d="M4.39537 11.9033L3.6634 12.4636L1.07245 14.4818C2.7179 17.7454 6.09038 20 9.99944 20C12.6994 20 14.963 19.1091 16.6176 17.5818L13.3721 15.0636C12.4812 15.6636 11.3448 16.0273 9.99944 16.0273C7.39945 16.0273 5.19042 14.2728 4.39946 11.9091L4.39537 11.9033Z" fill="#34A853"/>
<path d="M1.07265 5.51855C0.390868 6.86395 0 8.38216 0 10.0003C0 11.6185 0.390868 13.1367 1.07265 14.4821C1.07265 14.4911 4.39998 11.9003 4.39998 11.9003C4.19998 11.3003 4.08177 10.6639 4.08177 10.0002C4.08177 9.33649 4.19998 8.70016 4.39998 8.10016L1.07265 5.51855Z" fill="#FBBC05"/>
<path d="M9.99964 3.98182C11.4724 3.98182 12.7815 4.49089 13.8269 5.47272L16.6905 2.60912C14.9542 0.990971 12.6997 0 9.99964 0C6.09058 0 2.7179 2.24545 1.07245 5.51819L4.39968 8.10001C5.19054 5.73635 7.39966 3.98182 9.99964 3.98182Z" fill="#EA4335"/>
</g>
<defs>
<clipPath id="clip0_146_1093">
<rect width="20" height="20" fill="white"/>
</clipPath>
</defs>
</svg>
