<svg width="25" height="24" viewBox="0 0 25 24" fill="none" xmlns="http://www.w3.org/2000/svg">
<path d="M22.75 12C22.75 6.47715 18.2728 2 12.75 2C7.22715 2 2.75 6.47715 2.75 12C2.75 17.5228 7.22715 22 12.75 22C18.2728 22 22.75 17.5228 22.75 12Z" fill="#D62828" stroke="#D62828" stroke-width="1.5"/>
<path d="M13.1514 8.29796L16.0713 7.32465C16.9575 7.02924 17.4007 6.88153 17.6346 7.11544C17.8685 7.34935 17.7208 7.79247 17.4253 8.67871L16.452 11.5986C15.9486 13.1088 15.6969 13.8639 15.1554 14.4054C14.6139 14.9469 13.8588 15.1986 12.3486 15.702L9.42871 16.6753C8.54247 16.9708 8.09935 17.1185 7.86544 16.8846C7.63153 16.6507 7.77924 16.2075 8.07465 15.3213L9.04796 12.4014C9.55136 10.8912 9.80306 10.1361 10.3446 9.59457C10.8861 9.05306 11.6412 8.80136 13.1514 8.29796Z" fill="white" stroke="white" stroke-width="1.5" stroke-linecap="round" stroke-linejoin="round"/>
<path d="M12.7501 12L12.7437 12.0064" stroke="#D62828" stroke-width="2" stroke-linecap="round" stroke-linejoin="round"/>
</svg>
