<svg width="25" height="24" viewBox="0 0 25 24" fill="none" xmlns="http://www.w3.org/2000/svg">
<path d="M8.24805 16H12.248M8.24805 11H16.248" stroke="#6F7E8D" stroke-width="1.5" stroke-linecap="round"/>
<path d="M7.75 3.5C6.1942 3.54667 5.26661 3.71984 4.62477 4.36227C3.74609 5.24177 3.74609 6.6573 3.74609 9.48836V15.9944C3.74609 18.8255 3.74609 20.241 4.62477 21.1205C5.50345 22 6.91767 22 9.74609 22H14.7461C17.5745 22 18.9887 22 19.8674 21.1205C20.7461 20.241 20.7461 18.8255 20.7461 15.9944V9.48836C20.7461 6.6573 20.7461 5.24177 19.8674 4.36228C19.2256 3.71984 18.298 3.54667 16.7422 3.5" stroke="#6F7E8D" stroke-width="1.5"/>
<path d="M7.74609 3.75C7.74609 2.7835 8.5296 2 9.49609 2H14.9961C15.9626 2 16.7461 2.7835 16.7461 3.75C16.7461 4.7165 15.9626 5.5 14.9961 5.5H9.49609C8.5296 5.5 7.74609 4.7165 7.74609 3.75Z" stroke="#6F7E8D" stroke-width="1.5" stroke-linejoin="round"/>
</svg>
