<svg width="25" height="24" viewBox="0 0 25 24" fill="none" xmlns="http://www.w3.org/2000/svg">
<path d="M19.75 12.5C19.75 11.12 20.87 10 22.25 10V9C22.25 5 21.25 4 17.25 4H7.25C3.25 4 2.25 5 2.25 9V9.5C3.63 9.5 4.75 10.62 4.75 12C4.75 13.38 3.63 14.5 2.25 14.5V15C2.25 19 3.25 20 7.25 20H17.25C21.25 20 22.25 19 22.25 15C20.87 15 19.75 13.88 19.75 12.5Z" stroke="#6F7E8D" stroke-width="1.5" stroke-linecap="round" stroke-linejoin="round"/>
<path d="M10.25 4L10.25 20" stroke="#6F7E8D" stroke-width="1.5" stroke-linecap="round" stroke-linejoin="round" stroke-dasharray="5 5"/>
</svg>
