<svg width="25" height="24" viewBox="0 0 25 24" fill="none" xmlns="http://www.w3.org/2000/svg">
<path d="M12.75 22C18.2728 22 22.75 17.5228 22.75 12C22.75 6.47715 18.2728 2 12.75 2C7.22715 2 2.75 6.47715 2.75 12C2.75 17.5228 7.22715 22 12.75 22Z" fill="#D62828" stroke="#D62828" stroke-width="1.5" stroke-linecap="round" stroke-linejoin="round"/>
<path d="M12.8702 12.78C12.8002 12.77 12.7102 12.77 12.6302 12.78C10.8702 12.72 9.47021 11.28 9.47021 9.50998C9.47021 7.69998 10.9302 6.22998 12.7502 6.22998C14.5602 6.22998 16.0302 7.69998 16.0302 9.50998C16.0202 11.28 14.6302 12.72 12.8702 12.78Z" fill="white" stroke="white" stroke-width="1.5" stroke-linecap="round" stroke-linejoin="round"/>
<path d="M19.4898 19.3801C17.7098 21.0101 15.3498 22.0001 12.7498 22.0001C10.1498 22.0001 7.78977 21.0101 6.00977 19.3801C6.10977 18.4401 6.70977 17.5201 7.77977 16.8001C10.5198 14.9801 14.9998 14.9801 17.7198 16.8001C18.7898 17.5201 19.3898 18.4401 19.4898 19.3801Z" fill="white" stroke="white" stroke-width="1.5" stroke-linecap="round" stroke-linejoin="round"/>
</svg>
