<svg width="52" height="52" viewBox="0 0 52 52" fill="none" xmlns="http://www.w3.org/2000/svg">
<rect width="52" height="52" rx="26" fill="#D62828"/>
<path d="M12.155 23C11.51 23 11 22.49 11 21.845V18.38C11 14.315 14.315 11 18.38 11H21.845C22.49 11 23 11.51 23 12.155C23 12.8 22.49 13.31 21.845 13.31H18.38C15.575 13.31 13.31 15.59 13.31 18.38V21.845C13.31 22.49 12.785 23 12.155 23Z" fill="white"/>
<path d="M39.845 23C39.215 23 38.69 22.49 38.69 21.845V18.38C38.69 15.575 36.41 13.31 33.62 13.31H30.155C29.51 13.31 29 12.785 29 12.155C29 11.525 29.51 11 30.155 11H33.62C37.685 11 41 14.315 41 18.38V21.845C41 22.49 40.49 23 39.845 23Z" fill="white"/>
<path d="M33.6204 40.9998H31.5354C30.9054 40.9998 30.3804 40.4898 30.3804 39.8448C30.3804 39.2148 30.8904 38.6898 31.5354 38.6898H33.6204C36.4254 38.6898 38.6904 36.4098 38.6904 33.6198V31.5498C38.6904 30.9198 39.2004 30.3948 39.8454 30.3948C40.4754 30.3948 41.0004 30.9048 41.0004 31.5498V33.6198C41.0004 37.6848 37.6854 40.9998 33.6204 40.9998Z" fill="white"/>
<path d="M21.845 41H18.38C14.315 41 11 37.685 11 33.62V30.155C11 29.51 11.51 29 12.155 29C12.8 29 13.31 29.51 13.31 30.155V33.62C13.31 36.425 15.59 38.69 18.38 38.69H21.845C22.475 38.69 23 39.2 23 39.845C23 40.49 22.49 41 21.845 41Z" fill="white"/>
<path d="M35.6898 24.8452H33.6498H18.3498H16.3098C15.6648 24.8452 15.1548 25.3702 15.1548 26.0002C15.1548 26.6302 15.6648 27.1552 16.3098 27.1552H18.3498H33.6498H35.6898C36.3348 27.1552 36.8448 26.6302 36.8448 26.0002C36.8448 25.3702 36.3348 24.8452 35.6898 24.8452Z" fill="white"/>
<path d="M18.3501 28.9097V29.4047C18.3501 31.8947 20.3601 33.9047 22.8501 33.9047H29.1501C31.6401 33.9047 33.6501 31.8947 33.6501 29.4047V28.9097C33.6501 28.7297 33.5151 28.5947 33.3351 28.5947H18.6651C18.4851 28.5947 18.3501 28.7297 18.3501 28.9097Z" fill="white"/>
<path d="M18.3501 23.0902V22.5952C18.3501 20.1052 20.3601 18.0952 22.8501 18.0952H29.1501C31.6401 18.0952 33.6501 20.1052 33.6501 22.5952V23.0902C33.6501 23.2702 33.5151 23.4052 33.3351 23.4052H18.6651C18.4851 23.4052 18.3501 23.2702 18.3501 23.0902Z" fill="white"/>
</svg>
