<svg width="16" height="16" viewBox="0 0 16 16" fill="none" xmlns="http://www.w3.org/2000/svg">
<path d="M11.3334 13.6667H4.66671C2.66671 13.6667 1.33337 12.6667 1.33337 10.3333V5.66666C1.33337 3.33333 2.66671 2.33333 4.66671 2.33333H11.3334C13.3334 2.33333 14.6667 3.33333 14.6667 5.66666V10.3333C14.6667 12.6667 13.3334 13.6667 11.3334 13.6667Z" stroke="#6F7E8D" stroke-miterlimit="10" stroke-linecap="round" stroke-linejoin="round"/>
<path d="M8 10C9.10457 10 10 9.10457 10 8C10 6.89543 9.10457 6 8 6C6.89543 6 6 6.89543 6 8C6 9.10457 6.89543 10 8 10Z" stroke="#6F7E8D" stroke-miterlimit="10" stroke-linecap="round" stroke-linejoin="round"/>
<path d="M1.33337 6H2.00004C4.00004 6 4.66671 5.33334 4.66671 3.33334V2.66667" stroke="#6F7E8D" stroke-miterlimit="10" stroke-linecap="round" stroke-linejoin="round"/>
<path d="M14.6667 6H14C12 6 11.3334 5.33334 11.3334 3.33334V2.66667" stroke="#6F7E8D" stroke-miterlimit="10" stroke-linecap="round" stroke-linejoin="round"/>
<path d="M1.33337 10H2.00004C4.00004 10 4.66671 10.6667 4.66671 12.6667V13.3333" stroke="#6F7E8D" stroke-miterlimit="10" stroke-linecap="round" stroke-linejoin="round"/>
<path d="M14.6667 10H14C12 10 11.3334 10.6667 11.3334 12.6667V13.3333" stroke="#6F7E8D" stroke-miterlimit="10" stroke-linecap="round" stroke-linejoin="round"/>
</svg>
