<svg width="16" height="16" viewBox="0 0 16 16" fill="none" xmlns="http://www.w3.org/2000/svg">
<path d="M1.64292 6.22916C1.47723 6.22916 1.32603 6.09485 1.33365 5.91929C1.37826 4.89124 1.50324 4.22198 1.85342 3.69255C2.05489 3.38797 2.30514 3.12305 2.59286 2.90978C3.37054 2.33333 4.46763 2.33333 6.66181 2.33333H9.33826C11.5325 2.33333 12.6295 2.33333 13.4073 2.90978C13.6949 3.12305 13.9452 3.38797 14.1467 3.69255C14.4968 4.22192 14.6218 4.8911 14.6664 5.91895C14.6741 6.09471 14.5227 6.22916 14.3568 6.22916C13.4329 6.22916 12.684 7.02199 12.684 7.99999C12.684 8.97799 13.4329 9.77079 14.3568 9.77079C14.5227 9.77079 14.6741 9.90526 14.6664 10.0811C14.6218 11.1089 14.4968 11.7781 14.1467 12.3075C13.9452 12.612 13.6949 12.8769 13.4073 13.0902C12.6295 13.6667 11.5325 13.6667 9.33826 13.6667H6.66181C4.46763 13.6667 3.37054 13.6667 2.59286 13.0902C2.30514 12.8769 2.05489 12.612 1.85342 12.3075C1.50324 11.778 1.37826 11.1087 1.33365 10.0807C1.32603 9.90513 1.47723 9.77079 1.64292 9.77079C2.56678 9.77079 3.31572 8.97799 3.31572 7.99999C3.31572 7.02199 2.56678 6.22916 1.64292 6.22916Z" stroke="#6F7E8D" stroke-linejoin="round"/>
<path d="M6.33337 9.66666L9.66673 6.33333" stroke="#6F7E8D" stroke-linecap="round" stroke-linejoin="round"/>
<path d="M6.33337 6.33333H6.34086M9.6592 9.66666H9.66673" stroke="#6F7E8D" stroke-width="1.33333" stroke-linecap="round" stroke-linejoin="round"/>
</svg>
