<svg width="16" height="16" viewBox="0 0 16 16" fill="none" xmlns="http://www.w3.org/2000/svg">
<path d="M1.33337 10.6667C1.33337 8.54546 2.82576 7.33333 4.66671 7.33333C6.50765 7.33333 8.00004 8.54546 8.00004 10.6667H1.33337Z" stroke="#6F7E8D" stroke-linejoin="round"/>
<path d="M3.33337 5.33333H6.00004" stroke="#6F7E8D" stroke-linecap="round" stroke-linejoin="round"/>
<path d="M6.66663 10.6667C6.66663 11.7713 5.77119 12.6667 4.66663 12.6667C3.56206 12.6667 2.66663 11.7713 2.66663 10.6667" stroke="#6F7E8D"/>
<path d="M13.3333 12.6667C14.0697 12.6667 14.6667 12.0697 14.6667 11.3333C14.6667 10.597 14.0697 10 13.3333 10C12.597 10 12 10.597 12 11.3333C12 12.0697 12.597 12.6667 13.3333 12.6667Z" stroke="#6F7E8D"/>
<path d="M10.6667 5.33333C11.5555 5.75845 13.3333 7.44926 13.3333 10M10.6599 3.33333H11.0244C11.6809 3.33333 12.2831 3.71951 12.5873 4.33559C12.7976 4.76175 12.5873 5.33333 11.9899 5.33333H10.6599M10.6599 3.33333V5.33333M10.6599 3.33333H8.6296M10.6599 5.33333C10.6599 6.60869 10.5184 10.6667 8 10.6667H11.7777" stroke="#6F7E8D" stroke-linecap="round" stroke-linejoin="round"/>
</svg>
